<?xml version="1.0" encoding="UTF-8"?>
<!DOCTYPE svg PUBLIC "-//W3C//DTD SVG 1.1//EN" "http://www.w3.org/Graphics/SVG/1.1/DTD/svg11.dtd">
<!-- Creator: CorelDRAW -->
<svg xmlns="http://www.w3.org/2000/svg" xml:space="preserve" width="508mm" height="285.75mm" version="1.1" style="shape-rendering:geometricPrecision; text-rendering:geometricPrecision; image-rendering:optimizeQuality; fill-rule:evenodd; clip-rule:evenodd"
viewBox="0 0 50799.98 28575"
 xmlns:xlink="http://www.w3.org/1999/xlink"
 xmlns:xodm="http://www.corel.com/coreldraw/odm/2003">
 <defs>
  <style type="text/css">
   <![CDATA[
    .fil0 {fill:white}
   ]]>
  </style>
 </defs>
 <g id="Camada_x0020_1">
  <metadata id="CorelCorpID_0Corel-Layer"/>
  <g id="_3039987371296">
   <path class="fil0" d="M39529 17012.7c0,60.97 15.14,79.38 65.27,79.38l1762.46 0c103.82,0 65.3,-214.48 65.27,-449.79l0 -1613.96 1169.72 1488.05c243.29,299.3 359.66,419.7 781.79,504.56 614.45,123.53 4022.52,71.14 4793.68,71.14 186.74,0 476.71,-113.51 609.4,-185.01 616.71,-332.33 745.86,-1129.59 556.91,-1921.13 -101.85,-426.62 -547.65,-1211.59 -868.1,-1537.31 -120.05,-122.02 -314.52,-316.04 -398.3,-468.18 -34.5,-62.64 -46.47,-90.57 -52.22,-174.62 45.62,-63.82 72.81,-95.01 160.91,-121.84 256.06,-77.97 2209.68,-36.91 2624.2,-36.91l0 -1905 -3786.01 0c-505.38,0 -914.05,222.17 -1107.09,796.91 -191.23,569.37 -131.03,1118.2 91.38,1655.26 201.25,485.95 400.71,699.83 672.41,1060.91l348.89 395.95c254.82,271.2 261.48,535.97 -266.69,535.97 -535.11,0 -2045.48,39.16 -2501.33,-80.49 -210.61,-55.28 -529.84,-342.69 -631.92,-528.05 381.96,-10.35 982.3,-580.43 1175.49,-1057.69 225.52,-557.11 148.58,-1510.37 -158.89,-1951.2 -58.18,-83.43 -138.88,-174.25 -205.64,-252.64 -275.04,-322.97 -775.19,-574.93 -1202.62,-574.93l-3698.97 0 0 6270.62z"/>
   <path class="fil0" d="M2996.2 12250.21c0,1448.41 1392.55,2374.59 1392.55,2725.2 0,204.16 -344.87,211.67 -543.97,211.67l-3742.49 0 0 1825.62c0,60.97 15.14,79.38 65.28,79.38l5135.04 0c417.46,0 747.29,-82.64 963.33,-336.73 264.84,-311.47 363.95,-630.58 363.95,-1171.4 0,-887.51 -509.2,-1581.64 -973.68,-2149.76 -68.6,-83.91 -837.01,-787.11 -114.25,-787.11l2524.01 0 0 4445 1631.89 0c50.14,0 65.28,-18.41 65.28,-79.38l0 -4365.62 2328.18 0 0 -1905 -7876.64 0c-784.11,0 -1218.48,635.49 -1218.48,1508.13z"/>
   <path class="fil0" d="M27605.24 17092.08l1653.67 0c60.74,-317.03 529.82,-1857.12 543.97,-2063.75l43.51 0c9.88,144.4 485.09,1756.44 543.97,2063.75l1653.65 0c86.59,-198.97 350.75,-1266.43 432.41,-1564.41l1286.53 -4785.59 -1936.52 0 -500.45 1852.08c-56.14,-98.24 -451.7,-1775.57 -456.93,-1852.08l-2067.08 0c-80.32,203.56 -332.54,1391.42 -437.15,1743.85l-41.53 108.23c-9.12,-133.28 -373.43,-1388.28 -443.17,-1657.15 -23.22,-89.51 -26.62,-194.93 -100.8,-194.93l-1871.25 0c2.21,120.68 352.99,1380.45 410.64,1590.87l848.59 3175.01c73.77,268.26 146.2,533.68 217.59,793.74 65.95,240.2 133.32,590.36 220.35,790.38z"/>
   <path class="fil0" d="M17813.85 17092.08l1871.24 0 0 -2063.75c89.38,72.77 471.44,641.54 592.73,787.37 231.97,278.87 711.33,911.35 987.91,1074.14 353.88,208.28 1306.37,202.24 1726.68,202.24l1958.28 0c50.13,0 65.27,-18.41 65.27,-79.38l0 -1825.62c-468.17,0 -2107.97,36.8 -2481.36,-78.31 -178.38,-54.99 -217.41,-98.87 -351.92,-207.06 -98.38,-79.13 -215.94,-210.11 -278.21,-323.17 309.72,-31.34 720.8,-386.52 897.75,-601.69 609.91,-741.65 493.42,-2085.98 -89.39,-2656.68 -304.49,-298.17 -679.83,-578.09 -1221.77,-578.09l-3677.21 0 0 6350z"/>
   <path class="fil0" d="M33088.43 17092.08l1849.49 0 247.5 -889.66c25.27,-93.87 42.06,-248.05 122.4,-248.05l1436.07 0c79.78,0 154.54,390.59 198.58,552.28l171.31 585.43 1958.29 0c-46.71,-243.79 -149.67,-559.38 -214.82,-797.12 -73.54,-268.36 -146.31,-533.64 -217.59,-793.75 -146.04,-532.92 -291.38,-1062.81 -435.17,-1587.5 -121.67,-443.99 -786.39,-2972.33 -873.11,-3171.63l-2567.53 0c-7.87,115.01 -377.57,1443.26 -416.18,1584.13l-631.01 2354.79c-63.92,233.25 -625.49,2261.75 -628.23,2411.08z"/>
   <path class="fil0" d="M11395.04 17092.08l1849.49 0 248.51 -888.43c28.59,-90.65 49.18,-249.28 121.38,-249.28l1436.08 0c73.26,0 167.11,413.33 209.65,565.27 47.18,168.55 123.14,572.44 203.76,572.44l1849.49 0c105.27,0 36.89,-116.54 -24.53,-340.59l-1196.73 -4392.08c-39.73,-144.99 -424.11,-1496.13 -432.4,-1617.33l-2589.28 0 -835.04 3165.02c-145.4,529.79 -282.24,1056.39 -424.19,1574.39 -73.87,269.55 -135.58,522.86 -212.14,800.39 -46.26,167.72 -201.33,661.64 -204.05,810.2z"/>
  </g>
 </g>
</svg>
